<svg xmlns="http://www.w3.org/2000/svg" viewBox="0 0 100 100"><title>crystal horse black</title><defs><linearGradient id="material" x2="1" y2=".18"><stop stop-color="#b3edee"/><stop offset=".23" stop-color="#427b8f"/><stop offset=".7" stop-color="#427b8f"/><stop offset="1" stop-color="#b3edee"/></linearGradient></defs><ellipse cx="50" cy="91" rx="29" ry="2" fill="#14130f" opacity=".15"/><g stroke="#ecdfbb" stroke-width="1.7" stroke-linejoin="round" stroke-linecap="round"><path d="M29 73V49L35 32L44 21L47 10L54 19L63 26L74 43L72 54L63 58L53 49L51 62L65 73Z" fill="url(#material)"/><path d="M36 32L28 44L34 44L27 55L34 54L28 65L36 62" fill="none" stroke="#b3edee" stroke-width="3"/><circle cx="57" cy="32" r="2.7" fill="#ecdfbb"/><path d="M65 44l5 1" fill="none" stroke="#ecdfbb" stroke-width="2"/><path d="M30 77H70L79 88H21Z" fill="url(#material)"/><path d="M29 83h42" fill="none" stroke="#b3edee" stroke-width="2"/></g></svg>