<svg xmlns="http://www.w3.org/2000/svg" viewBox="0 0 100 100"><title>ghost rook black</title><defs><linearGradient id="material" x2="1" y2=".18"><stop stop-color="#c2d9c9"/><stop offset=".23" stop-color="#49616b"/><stop offset=".7" stop-color="#49616b"/><stop offset="1" stop-color="#c2d9c9"/></linearGradient></defs><ellipse cx="50" cy="91" rx="29" ry="2" fill="#14130f" opacity=".15"/><g stroke="#ecdfbb" stroke-width="1.7" stroke-linejoin="round" stroke-linecap="round"><path d="M29 19h9v9h8v-9h8v9h8v-9h9v23H29Z" fill="url(#material)"/><path d="M28 75Q35 64 34 48Q33 29 50 29Q67 29 66 48Q65 64 72 75L62 71L56 77L50 73L43 77L36 71Z" fill="url(#material)"/><circle cx="43" cy="46" r="3" fill="#ecdfbb"/><circle cx="57" cy="46" r="3" fill="#ecdfbb"/><path d="M25 78Q50 72 75 78L77 86Q50 93 23 86Z" fill="url(#material)"/><path d="M29 84q21 5 42 0" fill="none" stroke="#c2d9c9" stroke-width="2"/></g></svg>