<svg xmlns="http://www.w3.org/2000/svg" viewBox="0 0 100 100"><title>war bishop black</title><defs><linearGradient id="material" x2="1" y2=".18"><stop stop-color="#d7b36d"/><stop offset=".23" stop-color="#414942"/><stop offset=".7" stop-color="#414942"/><stop offset="1" stop-color="#d7b36d"/></linearGradient></defs><ellipse cx="50" cy="91" rx="29" ry="2" fill="#14130f" opacity=".15"/><g stroke="#ecdfbb" stroke-width="1.7" stroke-linejoin="round" stroke-linecap="round"><path d="M50 14Q69 33 61 43H39Q31 33 50 14Z" fill="url(#material)"/><path d="M51 21l-7 13" fill="none" stroke="#d7b36d" stroke-width="3"/><path d="M34 42Q34 27 50 27Q66 27 66 42V52H34Z" fill="url(#material)"/><path d="M38 39h24v8H38Z" fill="#ecdfbb"/><path d="M39 53L29 74L50 80L71 74L61 53Z" fill="url(#material)"/><path d="M50 57l11 5-3 9-8 6-8-6-3-9Z" fill="#d7b36d"/><path d="M50 61v10" fill="none" stroke="#ecdfbb" stroke-width="2"/><path d="M29 77H71V82H76V88H24V82H29Z" fill="url(#material)"/><path d="M30 84h40" fill="none" stroke="#d7b36d" stroke-width="2"/></g></svg>