<svg xmlns="http://www.w3.org/2000/svg" viewBox="0 0 100 100"><title>dragon pawn black</title><defs><linearGradient id="material" x2="1" y2=".18"><stop stop-color="#efad61"/><stop offset=".23" stop-color="#792f30"/><stop offset=".7" stop-color="#792f30"/><stop offset="1" stop-color="#efad61"/></linearGradient></defs><ellipse cx="50" cy="91" rx="29" ry="2" fill="#14130f" opacity=".15"/><g stroke="#ecdfbb" stroke-width="1.7" stroke-linejoin="round" stroke-linecap="round"><path d="M35 73L37 44L30 30L43 35L50 22L57 35L70 30L63 44L65 73Z" fill="url(#material)"/><path d="M36 48L20 42L26 65L36 60M64 48L80 42L74 65L64 60Z" fill="#efad61"/><path d="M43 44l4 2m6 0 4-2" fill="none" stroke="#ecdfbb" stroke-width="2.5"/><path d="M29 77H71V82H76V88H24V82H29Z" fill="url(#material)"/><path d="M30 84h40" fill="none" stroke="#efad61" stroke-width="2"/></g></svg>