<svg xmlns="http://www.w3.org/2000/svg" viewBox="0 0 100 100"><title>Gchess pawn black</title><defs><linearGradient id="body" x1="0" y1="0" x2="1" y2=".85"><stop stop-color="#62513f"/><stop offset=".6" stop-color="#3b3128"/><stop offset="1" stop-color="#241f1a"/></linearGradient></defs><ellipse cx="50" cy="89" rx="30" ry="3.4" fill="#181510" opacity=".18"/><g fill="url(#body)" stroke="#d3b88a" stroke-width="2.4" stroke-linecap="round" stroke-linejoin="round"><circle cx="50" cy="31" r="12"/><path d="M39 45 Q50 49 61 45 L62 51 Q55 56 59 65 Q62 73 68 77 H32 Q38 73 41 65 Q45 56 38 51Z"/><path d="M38 47H62" class="detail"/><path d="M31 76 H69 Q72 77 72 81 V83 H28 V81 Q28 77 31 76Z"/><path d="M29 82 H71 Q77 84 77 89 H23 Q23 84 29 82Z"/><path d="M31 83H69" fill="none" stroke="#d6b67a" stroke-width="2"/></g><style>.detail{fill:none;stroke:#d6b67a;stroke-width:1.8}.cut{fill:none;stroke:#d3b88a;stroke-width:3}</style></svg>