<svg xmlns="http://www.w3.org/2000/svg" viewBox="0 0 100 100"><title>Gchess rook black</title><defs><linearGradient id="body" x1="0" y1="0" x2="1" y2=".85"><stop stop-color="#62513f"/><stop offset=".6" stop-color="#3b3128"/><stop offset="1" stop-color="#241f1a"/></linearGradient></defs><ellipse cx="50" cy="89" rx="30" ry="3.4" fill="#181510" opacity=".18"/><g fill="url(#body)" stroke="#d3b88a" stroke-width="2.4" stroke-linecap="round" stroke-linejoin="round"><path d="M29 22 H39 V30 H46 V22 H54 V30 H61 V22 H71 V40 L65 47 H35 L29 40Z"/><path d="M37 47 H63 L61 65 Q62 73 69 77 H31 Q38 73 39 65Z"/><path d="M34 40H66 M39 51H61" class="detail"/><path d="M31 76 H69 Q72 77 72 81 V83 H28 V81 Q28 77 31 76Z"/><path d="M29 82 H71 Q77 84 77 89 H23 Q23 84 29 82Z"/><path d="M31 83H69" fill="none" stroke="#d6b67a" stroke-width="2"/></g><style>.detail{fill:none;stroke:#d6b67a;stroke-width:1.8}.cut{fill:none;stroke:#d3b88a;stroke-width:3}</style></svg>