<svg xmlns="http://www.w3.org/2000/svg" viewBox="0 0 100 100"><title>Gchess king white</title><defs><linearGradient id="body" x1="0" y1="0" x2="1" y2=".85"><stop stop-color="#fff8e7"/><stop offset=".6" stop-color="#f3e5c6"/><stop offset="1" stop-color="#d8c19a"/></linearGradient></defs><ellipse cx="50" cy="89" rx="30" ry="3.4" fill="#181510" opacity=".18"/><g fill="#f7eed9" stroke="#5d4934" stroke-width="2.4" stroke-linecap="round" stroke-linejoin="round"><path d="M45 12 H55 V19 H63 V27 H55 V35 H45 V27 H37 V19 H45Z"/><path d="M28 36 Q50 29 72 36 L68 49 H32Z"/><path d="M35 49 H65 L64 62 Q65 72 73 77 H27 Q35 72 36 62Z"/><path d="M32 43H68 M35 54H65" class="detail"/><path d="M31 76 H69 Q72 77 72 81 V83 H28 V81 Q28 77 31 76Z"/><path d="M29 82 H71 Q77 84 77 89 H23 Q23 84 29 82Z"/><path d="M31 83H69" fill="none" stroke="#b19059" stroke-width="2"/></g><style>.detail{fill:none;stroke:#b19059;stroke-width:1.8}.cut{fill:none;stroke:#5d4934;stroke-width:3}</style></svg>