<svg xmlns="http://www.w3.org/2000/svg" viewBox="0 0 100 100"><title>carved queen black</title><defs><linearGradient id="material" x2="1" y2=".18"><stop stop-color="#dbc38d"/><stop offset=".23" stop-color="#59432c"/><stop offset=".7" stop-color="#59432c"/><stop offset="1" stop-color="#dbc38d"/></linearGradient></defs><ellipse cx="50" cy="91" rx="29" ry="2" fill="#14130f" opacity=".15"/><g stroke="#ecdfbb" stroke-width="1.7" stroke-linejoin="round" stroke-linecap="round"><path d="M30 20l8 15 12-18 12 18 8-15-6 25H36Z" fill="#dbc38d"/><circle cx="30" cy="20" r="2.8" fill="#dbc38d"/><circle cx="50" cy="17" r="2.8" fill="#dbc38d"/><circle cx="70" cy="20" r="2.8" fill="#dbc38d"/><path d="M37 44H63L59 61L70 76H30L41 61Z" fill="url(#material)"/><path d="M41 49v12m6-12v15m6-15v15m6-15v12" fill="none" stroke="#dbc38d" stroke-width="1.5"/><path d="M29 77H71V82H76V88H24V82H29Z" fill="url(#material)"/><path d="M30 84h40" fill="none" stroke="#dbc38d" stroke-width="2"/></g></svg>